<svg width="84" height="84" viewBox="0 0 84 84" fill="none" xmlns="http://www.w3.org/2000/svg">
<circle cx="42" cy="42" r="42" fill="#101B31"/>
<path d="M46.27 54.3377L48.93 56.9977L54.25 51.6777" stroke="white" stroke-width="2.5" stroke-linecap="round" stroke-linejoin="round"/>
<path d="M42.2803 40.023C42.1053 40.0055 41.8953 40.0055 41.7028 40.023C37.5378 39.883 34.2303 36.4705 34.2303 32.2705C34.2128 27.983 37.6953 24.5005 41.9828 24.5005C46.2703 24.5005 49.7528 27.983 49.7528 32.2705C49.7528 36.4705 46.4278 39.883 42.2803 40.023Z" stroke="white" stroke-width="2.5" stroke-linecap="round" stroke-linejoin="round"/>
<path d="M41.9823 59.1674C38.7973 59.1674 35.6298 58.3624 33.2148 56.7524C28.9798 53.9174 28.9798 49.2974 33.2148 46.4799C38.0273 43.2599 45.9198 43.2599 50.7323 46.4799" stroke="white" stroke-width="2.5" stroke-linecap="round" stroke-linejoin="round"/>
</svg>
