<svg width="24" height="24" viewBox="0 0 24 24" fill="none" xmlns="http://www.w3.org/2000/svg">
<path d="M2.992 16.3422C3.13904 16.7131 3.17177 17.1195 3.086 17.5092L2.021 20.7992C1.98668 20.966 1.99555 21.1389 2.04677 21.3013C2.09799 21.4638 2.18986 21.6105 2.31366 21.7275C2.43747 21.8445 2.58911 21.9279 2.7542 21.9698C2.91929 22.0118 3.09236 22.0109 3.257 21.9672L6.67 20.9692C7.03771 20.8962 7.41852 20.9281 7.769 21.0612C9.90438 22.0584 12.3234 22.2694 14.5991 21.6569C16.8749 21.0444 18.8613 19.6478 20.2077 17.7136C21.5541 15.7793 22.1741 13.4316 21.9583 11.0847C21.7425 8.73787 20.7047 6.54265 19.0281 4.88638C17.3514 3.23011 15.1437 2.21922 12.7944 2.03208C10.4451 1.84494 8.10513 2.49356 6.18744 3.86352C4.26975 5.23348 2.89753 7.23672 2.31289 9.51982C1.72825 11.8029 1.96877 14.2191 2.992 16.3422Z" stroke="white" stroke-width="2" stroke-linecap="round" stroke-linejoin="round"/>
<path d="M8 12H8.01" stroke="white" stroke-width="2" stroke-linecap="round" stroke-linejoin="round"/>
<path d="M12 12H12.01" stroke="white" stroke-width="2" stroke-linecap="round" stroke-linejoin="round"/>
<path d="M16 12H16.01" stroke="white" stroke-width="2" stroke-linecap="round" stroke-linejoin="round"/>
</svg>
