<svg width="84" height="84" viewBox="0 0 84 84" fill="none" xmlns="http://www.w3.org/2000/svg">
<circle cx="42" cy="42" r="42" fill="#101B31"/>
<path d="M42 22C37.8466 22 33.7865 23.2316 30.333 25.5391C26.8796 27.8466 24.188 31.1264 22.5985 34.9636C21.0091 38.8009 20.5932 43.0233 21.4035 47.0969C22.2138 51.1705 24.2139 54.9123 27.1508 57.8492C30.0877 60.7861 33.8295 62.7862 37.9031 63.5965C41.9767 64.4068 46.1991 63.9909 50.0364 62.4015C53.8736 60.812 57.1534 58.1204 59.4609 54.667C61.7684 51.2135 63 47.1534 63 43C62.9937 37.4324 60.7792 32.0946 56.8423 28.1577C52.9054 24.2208 47.5676 22.0063 42 22ZM42 61C37.2261 61 32.6477 59.1036 29.2721 55.7279C25.8964 52.3523 24 47.7739 24 43C24 38.2261 25.8964 33.6477 29.2721 30.2721C32.6477 26.8964 37.2261 25 42 25V43L54.7218 55.7221C53.0534 57.3964 51.0707 58.7245 48.8875 59.6303C46.7043 60.536 44.3636 61.0015 42 61Z" fill="white"/>
</svg>
