<svg width="84" height="84" viewBox="0 0 84 84" fill="none" xmlns="http://www.w3.org/2000/svg">
<circle cx="42" cy="42" r="42" fill="#101B31"/>
<path d="M38.0302 41.023C37.8552 41.0055 37.6452 41.0055 37.4527 41.023C33.2877 40.883 29.9802 37.4705 29.9802 33.2705C29.9802 28.983 33.4452 25.5005 37.7502 25.5005C42.0377 25.5005 45.5202 28.983 45.5202 33.2705C45.5027 37.4705 42.1952 40.883 38.0302 41.023Z" stroke="white" stroke-width="2.625" stroke-linecap="round" stroke-linejoin="round"/>
<path d="M50.7172 28.9995C54.1122 28.9995 56.8422 31.747 56.8422 35.1245C56.8422 38.432 54.2172 41.127 50.9447 41.2495C50.8047 41.232 50.6472 41.232 50.4897 41.2495" stroke="white" stroke-width="2.625" stroke-linecap="round" stroke-linejoin="round"/>
<path d="M29.2805 47.4795C25.0455 50.3145 25.0455 54.9345 29.2805 57.752C34.093 60.972 41.9855 60.972 46.798 57.752C51.033 54.917 51.033 50.297 46.798 47.4795C42.003 44.277 34.1105 44.277 29.2805 47.4795Z" stroke="white" stroke-width="2.625" stroke-linecap="round" stroke-linejoin="round"/>
<path d="M54.0947 57.0005C55.3547 56.738 56.5447 56.2305 57.5247 55.478C60.2547 53.4305 60.2547 50.053 57.5247 48.0055C56.5622 47.2705 55.3897 46.7805 54.1472 46.5005" stroke="white" stroke-width="2.625" stroke-linecap="round" stroke-linejoin="round"/>
</svg>
